<?xml version="1.0" encoding="UTF-8" standalone="no"?>
<svg width="243px" height="176px" viewBox="0 0 243 176" version="1.1" xmlns="http://www.w3.org/2000/svg" xmlns:xlink="http://www.w3.org/1999/xlink">
    <!-- Generator: sketchtool 49.3 (51167) - http://www.bohemiancoding.com/sketch -->
    <title>7AC6C224-031D-4650-8512-8367DA66036D</title>
    <desc>Created with sketchtool.</desc>
    <defs></defs>
    <g id="Final" stroke="none" stroke-width="1" fill="none" fill-rule="evenodd">
        <g id="Styleguide" transform="translate(-393.000000, -3522.000000)">
            <g id="search-graphic" transform="translate(393.000000, 3522.000000)">
                <path d="M14.9981761,5.25153374 C9.6246062,5.25153374 5.25153374,9.62493782 5.25153374,14.9995026 C5.25153374,20.3753938 9.62361134,24.7484663 14.9981761,24.7484663 C20.3750622,24.7484663 24.7484663,20.3753938 24.7484663,14.9995026 C24.7484663,9.62493782 20.3750622,5.25153374 14.9981761,5.25153374 M14.9981761,30 C6.72823744,30 0,23.2704361 0,14.9995026 C0,6.72823744 6.72823744,0 14.9981761,0 C23.2704361,0 30,6.72823744 30,14.9995026 C30,23.2704361 23.2704361,30 14.9981761,30" id="Fill-1" fill="#D1D1D1"></path>
                <path d="M47.2546122,24.7484663 L201.745388,24.7484663 L201.745388,5.25153374 L47.2546122,5.25153374 L47.2546122,24.7484663 Z M42,30 L207,30 L207,0 L42,0 L42,30 Z" id="Fill-3" fill="#D1D1D1"></path>
                <path d="M14.9981761,51.2513016 C9.6246062,51.2513016 5.25153374,55.6245123 5.25153374,60.9988394 C5.25153374,66.3741613 9.62361134,70.7486984 14.9981761,70.7486984 C20.3750622,70.7486984 24.7484663,66.3741613 24.7484663,60.9988394 C24.7484663,55.6245123 20.3750622,51.2513016 14.9981761,51.2513016 M14.9981761,76 C6.72823744,76 0,69.2707336 0,60.9988394 C0,52.7282716 6.72823744,46 14.9981761,46 C23.2704361,46 30,52.7282716 30,60.9988394 C30,69.2707336 23.2704361,76 14.9981761,76" id="Fill-5" fill="#D1D1D1"></path>
                <path d="M14.9981761,97.2515918 C9.6246062,97.2515918 5.25153374,101.623386 5.25153374,106.99801 C5.25153374,112.373961 9.62361134,116.74874 14.9981761,116.74874 C20.3750622,116.74874 24.7484663,112.373961 24.7484663,106.99801 C24.7484663,101.623386 20.3750622,97.2515918 14.9981761,97.2515918 M14.9981761,122 C6.72823744,122 0,115.270362 0,106.99801 C0,98.7283118 6.72823744,92 14.9981761,92 C23.2704361,92 30,98.7283118 30,106.99801 C30,115.270362 23.2704361,122 14.9981761,122" id="Fill-6" fill="#D1D1D1"></path>
                <path d="M195.5,100 C194.11974,100 193,101.11974 193,102.5 C193,103.879907 194.11974,105 195.5,105 C196.879907,105 198,103.879907 198,102.5 C198,101.11974 196.879907,100 195.5,100" id="Fill-7" fill="#D1D1D1"></path>
                <path d="M140.998142,70.7486984 L47.2546122,70.7486984 L47.2546122,51.2513016 L201.745388,51.2513016 L201.745388,70.7486984 L196.632792,70.7486984 C198.465071,72.3506837 200.157656,74.1085234 201.69097,76 L207,76 L207,46 L42,46 L42,76 L135.939964,76 C137.47361,74.1085234 139.166195,72.3506837 140.998142,70.7486984" id="Fill-8" fill="#D1D1D1"></path>
                <path d="M128.789999,116.74874 L47.2548917,116.74874 L47.2548917,97.2515918 L126.925435,97.2515918 C127.173645,95.4628139 127.533683,93.7101831 127.999243,92 L42,92 L42,122 L131,122 C130.150842,120.310378 129.409861,118.557415 128.789999,116.74874" id="Fill-9" fill="#D1D1D1"></path>
                <path d="M207,121 L207.5,121 L207.5,120 C207.334862,120.334076 207.17156,120.668597 207,121" id="Fill-10" fill="#1D1D1B"></path>
                <path d="M236.938809,169.93914 C236.052879,170.82507 234.876382,171.312547 233.625093,171.312547 C232.373804,171.312547 231.196976,170.82507 230.311377,169.93914 L209.50013,149.127561 C211.873641,147.090948 214.090617,144.873972 216.12723,142.500461 L236.939471,163.31237 C237.82507,164.196645 238.312547,165.373142 238.312547,166.625093 C238.312547,167.877375 237.82507,169.053541 236.938809,169.93914 Z M199.527212,139.154643 C201.953012,137.170319 204.170319,134.953012 206.154643,132.527543 L212.803917,139.176816 C210.781866,141.563566 208.563566,143.782527 206.176816,145.804248 L199.527212,139.154643 Z M194.610085,137.03 C194.610085,137.030331 194.610085,137.030331 194.609754,137.030662 C187.375045,142.285018 178.822527,145.062609 169.874866,145.062609 C146.612666,145.062609 127.687453,126.137727 127.687453,102.875196 C127.687453,79.6129972 146.612666,60.6877844 169.874866,60.6877844 C193.137396,60.6877844 212.062609,79.6129972 212.062609,102.875196 C212.062609,111.822527 209.284687,120.375045 204.030331,127.610085 C201.401002,131.231907 198.231907,134.401333 194.610085,137.03 Z M240.253518,159.996999 L208.968969,128.712451 C214.065466,121.035604 216.750062,112.145857 216.750062,102.875196 C216.750062,77.0283451 195.722048,56 169.874866,56 C144.028014,56 123,77.0283451 123,102.875196 C123,128.722048 144.028014,149.750062 169.874866,149.750062 C179.145857,149.750062 188.035604,147.065466 195.712451,141.9693 L204.359617,150.616797 C204.360941,150.61779 204.361934,150.619114 204.363258,150.620438 L226.996669,173.253849 C228.767867,175.024716 231.121853,176 233.625093,176 C236.128664,176 238.482319,175.024716 240.252856,173.25451 C242.024385,171.483974 243,169.129988 243,166.625093 C243,164.120529 242.024385,161.766543 240.253518,159.996999 Z" id="Fill-11" fill="#D1D1D1"></path>
                <path d="M169,135.250042 C150.665846,135.250042 135.749958,120.333819 135.749958,102.000335 C135.749958,83.6661813 150.665846,68.7499581 169,68.7499581 C187.334154,68.7499581 202.250042,83.6661813 202.250042,102.000335 C202.250042,120.333819 187.334154,135.250042 169,135.250042 M207,102.000335 C207,81.0463936 189.953271,64 169,64 C148.046729,64 131,81.0463936 131,102.000335 C131,122.953606 148.046729,140 169,140 C189.953271,140 207,122.953606 207,102.000335" id="Fill-12" fill="#D1D1D1"></path>
                <path d="M194.4841,94.8452997 C195.701879,94.3864316 196.310435,93.0464584 195.842007,91.8523548 C193.807482,86.660899 190.264914,82.2223399 185.59665,79.0168048 C180.817619,75.7347371 175.204159,74 169.362825,74 C168.057966,74 167,75.0371138 167,76.3162534 C167,77.5953931 168.057966,78.6325069 169.362825,78.6325069 C179.074027,78.6325069 187.942459,84.6125093 191.430979,93.5138301 C191.791975,94.4348368 192.687126,95 193.637327,95 C193.918917,95 194.205512,94.9499595 194.4841,94.8452997" id="Fill-13" fill="#D1D1D1"></path>
            </g>
        </g>
    </g>
</svg>